<svg width="100" height="100" viewBox="0 0 77 77" fill="none" xmlns="http://www.w3.org/2000/svg">
<g id="Group">
<g id="Group_2">
<path id="Vector" d="M64.6592 18.9907C66.5137 16.9043 67.441 14.3543 67.441 11.5725C67.441 5.54521 62.5728 0.44519 56.3137 0.44519H10.6453C8.09534 0.44519 6.00897 1.37247 4.38624 2.9952C2.7635 4.61793 1.83623 6.7043 1.83623 9.25431C1.83623 14.1225 5.77715 18.0634 10.6453 18.0634H18.759C26.409 18.0634 30.35 27.1044 25.2499 32.8999L3.22714 57.7045C1.37259 59.7909 0.445312 62.3409 0.445312 65.1227C0.445312 71.15 5.31351 76.25 11.5726 76.25H53.9955C52.1409 73.9318 50.9818 70.6863 50.9818 67.4409C50.9818 64.1954 52.1409 60.95 53.9955 58.6318H49.3591C41.7091 58.6318 37.5363 49.5908 42.6364 43.7953L64.6592 18.9907Z" fill="#327FEB"/>
</g>
<path id="Vector_2" d="M67.441 76.25C72.3061 76.25 76.2501 72.306 76.2501 67.4409C76.2501 62.5757 72.3061 58.6318 67.441 58.6318C62.5758 58.6318 58.6318 62.5757 58.6318 67.4409C58.6318 72.306 62.5758 76.25 67.441 76.25Z" fill="#327FEB"/>
</g>
</svg>
