<svg width="32" height="32" viewBox="0 0 32 32" fill="none" xmlns="http://www.w3.org/2000/svg">
<g id="Group">
<g id="Group_2">
<path id="Vector" d="M27.2143 8.35746C27.9801 7.49599 28.3629 6.44308 28.3629 5.29445C28.3629 2.80576 26.3528 0.699951 23.7684 0.699951H4.91182C3.85892 0.699951 2.99745 1.08283 2.32742 1.75286C1.65738 2.42289 1.27451 3.28436 1.27451 4.33727C1.27451 6.34736 2.90173 7.97458 4.91182 7.97458H8.26198C11.4207 7.97458 13.0479 11.7076 10.9421 14.1006L1.84882 24.3425C1.08307 25.204 0.700195 26.2569 0.700195 27.4055C0.700195 29.8942 2.71029 32 5.2947 32H22.8112C22.0455 31.0428 21.5669 29.7027 21.5669 28.3627C21.5669 27.0226 22.0455 25.6826 22.8112 24.7254H20.8969C17.7381 24.7254 16.0152 20.9923 18.121 18.5994L27.2143 8.35746Z" fill="white"/>
</g>
<path id="Vector_2" d="M28.3629 32C30.3717 32 32.0002 30.3715 32.0002 28.3627C32.0002 26.3539 30.3717 24.7254 28.3629 24.7254C26.3541 24.7254 24.7256 26.3539 24.7256 28.3627C24.7256 30.3715 26.3541 32 28.3629 32Z" fill="white"/>
</g>
</svg>
